<?xml version="1.0" encoding="utf-8"?>
<!-- Generator: Adobe Illustrator 26.0.1, SVG Export Plug-In . SVG Version: 6.00 Build 0)  -->
<svg version="1.1" id="Layer_1" xmlns="http://www.w3.org/2000/svg" xmlns:xlink="http://www.w3.org/1999/xlink" x="0px" y="0px"
	 viewBox="0 0 316 122.32" style="enable-background:new 0 0 316 122.32;" xml:space="preserve">
<style type="text/css">
	.st0{fill:#F2F2F2;}
	.st1{fill:#E6E6E6;}
	.st2{fill:#A0616A;}
	.st3{fill:#2F2E41;}
	.st4{fill:#3F3D56;}
	.st5{fill:#6C63FF;}
	.st6{fill:#FFFFFF;}
	.st7{fill:#CCCCCC;}
</style>
<rect x="3.14" y="16.15" class="st0" width="90.94" height="0.59"/>
<rect x="3.14" y="29.72" class="st0" width="90.94" height="0.59"/>
<rect x="3.14" y="43.29" class="st0" width="90.94" height="0.59"/>
<rect x="3.14" y="56.87" class="st0" width="90.94" height="0.59"/>
<rect x="3.14" y="70.44" class="st0" width="90.94" height="0.59"/>
<path class="st1" d="M69.21,84.25v0.61H3.08c-0.19,0-0.35-0.13-0.35-0.29c0,0,0,0,0,0V0.3C2.73,0.13,2.89,0,3.08,0
	s0.35,0.13,0.35,0.29c0,0,0,0,0,0v26.97c0,0.82,0.02,1.64,0.06,2.46c0.01,0.2,0.02,0.39,0.03,0.59c0.27,4.4,1.15,8.75,2.62,12.98
	c0.07,0.2,0.14,0.4,0.21,0.59c1.65,4.55,3.97,8.92,6.91,12.98c0.14,0.2,0.29,0.39,0.43,0.59c3.61,4.86,8.07,9.24,13.23,12.98
	c0.27,0.2,0.55,0.4,0.82,0.59C39.41,79.24,54.02,83.9,69.21,84.25z"/>
<path class="st1" d="M25.56,0.22c-1.62,0-2.94,1.32-2.94,2.94c0,1.62,1.32,2.94,2.94,2.94h48.35V0.22H25.56z"/>
<polygon class="st2" points="116.98,114.31 114.8,114.31 113.76,105.9 116.98,105.9 "/>
<path class="st3" d="M110.4,117.52c0,0.51,0.41,0.92,0.92,0.92h4.1l0.13-0.26l0.58-1.2l0.22,1.2l0.05,0.26h1.55l-0.02-0.27
	l-0.41-4.95l-0.54-0.03l-2.33-0.14l-0.57-0.04v1.48C113.64,114.96,110.23,116.71,110.4,117.52z"/>
<polygon class="st2" points="136.81,112.66 134.75,113.36 131.06,105.73 134.1,104.7 "/>
<path class="st3" d="M131.62,117.82c0.17,0.48,0.69,0.74,1.17,0.58l3.88-1.32l0.04-0.29l0.16-1.32l0.6,1.06l0.13,0.23l1.46-0.5
	l-0.11-0.24l-1.98-4.55l-0.52,0.14l-2.25,0.62l-0.55,0.15l0.48,1.4C133.86,114.35,131.19,117.11,131.62,117.82z"/>
<circle class="st3" cx="120.37" cy="20.34" r="2.43"/>
<path class="st3" d="M120.39,23.86c-1.13-0.69-1.49-2.17-0.79-3.3c0.01-0.02,0.02-0.03,0.03-0.05c0.71-1.14,2.21-1.48,3.35-0.76l0,0
	c1.14,0.71,0.28,2.1,0.76,3.35C124.42,24.87,121.96,24.77,120.39,23.86z"/>
<path class="st3" d="M110.8,55.69h12.3l1.06,5.94c0,0,4.88,5.33,2.64,9.95c0,0,1.55,2.34,0.74,3.21c-0.82,0.87-2.3,0.45-0.82,1.34
	c1.48,0.88,2.29,0.4,1.48,1.25c-0.81,0.85,4.05,17.31,4.05,17.31l5.53,15.61l-5.26,0.44l-10.8-15.51l-5.66-20.44l2.45,35.94h-5.81
	l-2.91-3.93c0,0,1.15-0.2,0-1.44c-1.15-1.24-2.23-1.37-1.15-1.85c1.08-0.47-2.43-11.13-2.43-11.13L110.8,55.69z"/>
<path class="st4" d="M110.6,52.25c0,0-1.62,0.94-0.81,1.35s0.81,0.43,0.81,1.09c0,0.66,0.27,1.87,0.67,1.87c0.4,0,3.78,0,5.53,3.1
	c1.75,3.1,8.5,2.02,8.5,1.08c0-0.94-0.49-4.32-1.32-5.06c-0.83-0.74-1.64-0.47-0.97-1.15c0.67-0.67,1.75-0.27,0.94-1.08
	s-1.48-0.94-1.48-2.16s2.83-12.93,2.83-12.93s-0.27-3.93-2.29-3.93c-1.2-0.01-2.29-0.69-2.83-1.75l-0.34-2.63l-4.99-0.67l-1.15,3.17
	c0,0-1.96,2.23-1.96,2.9s-4.45,4.72-2.7,7.69c1.75,2.97,2.36,1.01,1.82,2.36C110.33,46.85,110.6,52.25,110.6,52.25z"/>
<path class="st3" d="M114.76,23.11c-0.08,0.2-2.69,0.18-2.81,0.35c-0.92,1.35,2.39,7.1,1.47,8.46l-0.13,0.15
	c0.3-0.14,0.59-0.3,0.86-0.49c0.02-0.55,0.05-1.11,0.08-1.66c0.28,0.35,0.5,0.74,0.66,1.16c0.4-0.37,0.84-0.7,1.31-0.98
	c0.37-0.41,0.8-0.76,1.27-1.05L114.76,23.11z"/>
<circle class="st2" cx="116.05" cy="25.18" r="4.31"/>
<path class="st3" d="M119.32,31.39c-0.35-0.29-0.59-0.69-0.69-1.14c-0.08,0.54-0.06,1.09,0.06,1.63c-0.23,0.18-0.46,0.34-0.67,0.49
	c-0.16-0.42-0.38-0.81-0.66-1.16c-0.03,0.55-0.05,1.11-0.08,1.66c-0.27,0.19-0.56,0.35-0.86,0.49l0.13-0.15
	c0.92-1.35-1.46-3.85-0.54-5.2c0.26-0.38-0.91-3.37-1.79-3.51c-0.79-0.12-0.76,0.11-1.52,0.28c-0.08-0.33-0.2-0.65-0.37-0.95
	c0.04,0.33,0.03,0.67-0.03,1c-0.27,0.01-0.49-0.16-0.78-0.21c-1.85-0.28-1.66-2.28-1.15-2.91c0.52-0.63,2.23-0.82,3.02-1.03
	c0.07-0.07,0.23-0.03,0.31-0.09c1.51-1.38,3.53-1.61,5.35-1c1.94,0.65,3.15,1.92,3.77,3.87l0.18,1.56c0.16,0.5-0.04,2.84-0.18,3.35
	C122.29,30.35,121.16,29.36,119.32,31.39z"/>
<path class="st2" d="M105.29,62.8c0.59-0.41,0.74-1.22,0.34-1.82c-0.04-0.06-0.08-0.11-0.13-0.16l4.5-8.99l-2.56-2.08l-3.82,11.13
	c-0.4,0.45-0.44,1.11-0.11,1.61c0.39,0.58,1.18,0.73,1.76,0.33C105.27,62.81,105.28,62.8,105.29,62.8z"/>
<path class="st4" d="M117.74,35.55c0,0-1.23-2.65-4.52-0.02c-3.29,2.63-5.97,10.89-5.92,11.42s0.46,0.02-0.19,1.07
	c-0.53,0.85,0.16,1.04-0.16,1.12c-0.84,0.23,0.82,1.07-0.25,1.12c-1.07,0.05,2.75,1.93,2.75,1.93s0.62-0.12,0.88-1.53
	c0.15-0.79-0.19-1.26,0.45-1.36s0.12-1.57,0.22-1.79s3.9-4.36,3.9-4.36L117.74,35.55z"/>
<circle class="st5" cx="112.12" cy="64.62" r="12.36"/>
<path class="st6" d="M110.33,71.05c-0.43,0-0.84-0.2-1.1-0.55l-3.37-4.5c-0.46-0.61-0.33-1.47,0.28-1.92
	c0.61-0.46,1.47-0.33,1.92,0.28l2.21,2.94l5.67-8.5c0.42-0.63,1.27-0.8,1.91-0.38c0.63,0.42,0.8,1.27,0.38,1.91c0,0,0,0,0,0
	l-6.74,10.12c-0.25,0.37-0.66,0.6-1.11,0.61C110.35,71.05,110.34,71.05,110.33,71.05z"/>
<path class="st2" d="M121.77,63.89c-0.36-0.62-0.15-1.42,0.46-1.79c0.06-0.04,0.12-0.07,0.19-0.09l-0.3-10.05l3.2-0.81l-1.22,11.7
	c0.17,0.58-0.07,1.19-0.58,1.51c-0.6,0.36-1.38,0.16-1.73-0.44C121.79,63.91,121.78,63.9,121.77,63.89z"/>
<path class="st4" d="M121.54,34.84c0,0,2.23-1.89,4.11,1.89c1.88,3.77,0.83,12.39,0.56,12.85c-0.26,0.46-0.43-0.18-0.28,1.05
	c0.12,1-0.58,0.87-0.33,1.09c0.66,0.56-1.19,0.62-0.24,1.12s-3.31,0.59-3.31,0.59s-0.52-0.37-0.16-1.76c0.2-0.78,0.7-1.06,0.17-1.43
	s0.55-1.48,0.56-1.72c0-0.24-1.7-5.6-1.7-5.6L121.54,34.84z"/>
<path class="st0" d="M74.81,116.24c-0.27,0.01-0.49-0.19-0.5-0.46c-0.01-0.14,0.05-0.28,0.15-0.38l0.03-0.13
	c0-0.01-0.01-0.02-0.01-0.03c-0.28-0.66-1.04-0.97-1.7-0.69c-0.31,0.13-0.56,0.38-0.69,0.7c-0.39,0.94-0.89,1.88-1.01,2.88
	c-0.05,0.44-0.03,0.89,0.07,1.32c-0.92-2-1.39-4.18-1.4-6.38c0-0.55,0.03-1.11,0.09-1.65c0.05-0.45,0.12-0.9,0.21-1.34
	c0.49-2.41,1.55-4.67,3.08-6.59c0.74-0.41,1.34-1.03,1.72-1.78c0.14-0.27,0.23-0.56,0.29-0.86c-0.08,0.01-0.32-1.26-0.25-1.34
	c-0.12-0.18-0.33-0.27-0.45-0.44c-0.63-0.86-1.51-0.71-1.96,0.46c-0.97,0.49-0.98,1.31-0.39,2.09c0.38,0.5,0.43,1.17,0.77,1.71
	c-0.03,0.04-0.07,0.09-0.1,0.13c-0.63,0.81-1.17,1.67-1.63,2.59c0.11-1.02-0.02-2.06-0.39-3.02c-0.37-0.9-1.07-1.65-1.68-2.43
	c-0.45-0.58-1.29-0.69-1.87-0.23c-0.28,0.22-0.46,0.54-0.5,0.89c0,0.01,0,0.02,0,0.03c0.09,0.05,0.18,0.11,0.27,0.16
	c0.3,0.2,0.38,0.61,0.18,0.91c-0.1,0.15-0.26,0.26-0.44,0.28l-0.01,0c0.03,0.33,0.09,0.65,0.17,0.97c-0.79,3.04,0.91,4.15,3.34,4.2
	c0.05,0.03,0.11,0.05,0.16,0.08c-0.46,1.31-0.75,2.66-0.86,4.04c-0.06,0.81-0.06,1.63,0.01,2.45l0-0.03
	c-0.18-0.9-0.66-1.72-1.37-2.31c-1.05-0.86-2.54-1.18-3.67-1.88c-0.35-0.22-0.81-0.12-1.04,0.23c-0.1,0.15-0.14,0.33-0.11,0.5
	l0,0.03c0.17,0.07,0.33,0.15,0.49,0.24c0.09,0.05,0.18,0.11,0.27,0.16c0.3,0.2,0.38,0.61,0.18,0.91c-0.1,0.15-0.26,0.26-0.44,0.28
	l-0.01,0c-0.01,0-0.02,0-0.03,0c0.29,0.69,0.69,1.32,1.2,1.88c0.49,2.66,2.61,2.91,4.87,2.13h0c0.25,1.08,0.61,2.13,1.07,3.13h3.83
	c0.01-0.04,0.03-0.09,0.04-0.13c-0.35,0.02-0.71,0-1.06-0.06c0.28-0.35,0.57-0.7,0.85-1.05c0.01-0.01,0.01-0.01,0.02-0.02
	c0.14-0.18,0.29-0.36,0.43-0.53l0,0C75.01,117.32,74.94,116.77,74.81,116.24L74.81,116.24z"/>
<path class="st7" d="M81.72,118.69c0,0.17,0.14,0.31,0.31,0.31c0,0,0,0,0,0h65.43c0.17,0,0.31-0.14,0.31-0.31
	c0-0.17-0.14-0.31-0.31-0.31l0,0H82.03C81.86,118.38,81.72,118.52,81.72,118.69C81.72,118.69,81.72,118.69,81.72,118.69z"/>
<circle class="st6" cx="3.19" cy="52.43" r="3.19"/>
<circle class="st6" cx="3.19" cy="67.1" r="3.19"/>
</svg>
